<?xml version="1.0" encoding="UTF-8"?><svg id="a" xmlns="http://www.w3.org/2000/svg" viewBox="0 0 2159 1203"><defs><style>.b{fill:#1b1f25;}</style></defs><path class="b" d="M0,902l5.12,14.38c16.73,32.87,46.88,57.35,75.96,79.04,48.13,35.9,101.18,65.72,145.93,106.07,7.42,6.69,13.99,16.47,22.98,20.51l-13.48-16.04c-46.66-44.71-103.67-76.77-153.99-116.98-58.03-46.38-104.58-99.17-26.99-157.93,70.44-53.34,199.8-90.54,285.46-115.54,382.07-111.51,780.59-155.16,1161.76-272.24,71.6-21.99,167.75-51.68,228.96-94.04,101.34-70.14,23.57-131.86-44.81-181.64-40.81-29.71-86.73-56.83-124.12-90.64-15.94-14.41-33.18-32.08-41.78-51.95,6.98,9.25,12.75,19.27,20.48,28.01,44.57,50.46,115.46,87.67,169.43,128.57,43.72,33.13,107.09,85.33,58.6,142.43-41.39,48.73-155.69,87.25-216.72,107.28-400.73,131.49-825.55,171.21-1228,295-73.96,22.75-201.49,62.37-257.32,114.68-58.72,55.02-9.98,104.57,37.62,142.44,54.69,43.52,138.6,87.54,181.33,140.67,3.49,4.34,9.72,15.74,12.89,18.6.71.64,3.13,1.84,3.69,1.31.5-.47-5.92-10.51-6.77-11.72-50.85-72.9-154.37-112.63-213.22-179.06-76.17-85.97,24.73-137.17,95.32-168.38s154.49-56.86,231.46-78.54c397.07-111.87,815.6-153.41,1206.74-287.26,53.37-18.27,166.88-58.87,195.68-108.32,33.27-57.15-38.61-109.01-78.88-138.51-47.99-35.16-104.08-66.77-146.22-108.78-12.2-12.17-26.82-30.31-32.14-46.86-.36-1.11-2.23-5.32.03-5.54,7.34,25.92,27.34,46.05,47,63.51,47.67,42.33,105.93,73.48,156.24,112.53,40.57,31.49,95.88,80.34,54.2,133.89-38.11,48.97-154.21,88.41-213.22,107.78-325.68,106.88-666.58,154.83-999.42,233.58-127.45,30.16-270.02,65.96-389.76,118.24-69.08,30.16-180.38,82.61-102.55,169.48,56.31,62.85,148.31,101.26,207.03,163.97,15.98,17.07,21.71,29.16,31.22,49.83.65,1.42-.6,2.72,2.26,2.18-3.35-19.02-15.12-35.65-27.48-50.01-54.14-62.87-141.83-100.47-197.03-161.97-74.08-82.54,15.15-132.45,84.16-164.87,75.04-35.25,161.42-61.18,241.36-83.64,268.54-75.44,547.23-117.17,819.01-180.99,144.13-33.84,302.23-70.9,439.97-124.03,70.4-27.16,210.11-83.37,126.53-176.5-54.82-61.09-142.67-98.11-202.77-154.95-7.99-7.56-24.88-25.52-29.2-35.08-.44-.97-1.48-3.09.44-2.94,19.02,31.15,50.76,55.2,80.1,76.4,50.79,36.69,118.36,72.74,159.42,119.58,70.44,80.34-26.87,131.47-91.84,160.19-62.62,27.68-131.83,48.34-197.68,67.32-185.24,53.42-374.97,94.96-563.79,134.21-231.73,48.17-478.46,89.47-699.48,174.52-62.97,24.23-216.26,82.06-154.56,172.1,31,45.24,103.04,87.79,147.75,121.25,30.02,22.46,101.08,76.48,101.08,116.92v14.5l2.04-7.46c1.16-43.29-43.59-82.23-74.57-107.51-46.22-37.73-101.56-70.13-142.99-113.01-83.83-86.79,8.07-139.14,83.84-174.19,125.07-57.86,281.91-95.56,416.66-126.34,333.3-76.13,675.58-127.8,1001.78-232.22,61.43-19.66,162.22-52.88,207.28-98.75,64.39-65.56-23.44-127.29-73.73-163.33-47.34-33.94-109.9-68.45-148.12-111.83-7.07-8.02-14.02-17.43-18.18-27.35,7.27,9.87,13.49,20.52,21.99,29.5,39.17,41.38,98.09,74.13,144.91,107.09,64.27,45.25,156.42,112.19,60,183.82-61.79,45.91-167.6,77.21-241.9,99.1-145.37,42.83-295.93,78.26-444,111-232.51,51.41-470.37,89.74-699.01,155.99-79.86,23.14-173.75,52.08-245.67,93.33-37.98,21.78-90.27,57.2-71.8,108.15,19.82,54.69,126.48,117.85,173.39,154.61,24.93,19.54,84.08,69.34,84.08,102.92v18c0,.66-2.79,5.06-.01,5.49,11.31-40.93-20.42-75.84-47.97-101.51-46.06-42.9-102.79-75.27-149.03-117.97-37.32-34.47-71.67-77.85-30.5-125.53,47.61-55.14,177.95-98.19,247.73-120.27,202.81-64.17,415.84-100.45,623.98-144.02,143.51-30.04,286.74-62.12,428.82-98.18,102.82-26.1,213.56-53.56,311.68-93.32,68.4-27.72,186.63-81.46,110.66-169.08-60.81-70.15-163.41-106.3-224.32-177.86l-4.54-8.25c24.64,31.1,57.25,54.77,89.57,77.43,46.53,32.63,146.71,89.46,165.96,143.04,25.83,71.92-86.83,118.59-138.03,139-55,21.92-113.74,39.15-170.77,55.23-261.95,73.89-529.08,125.39-795.25,181.75-163.28,34.57-344.34,72.38-497.95,137.05-52.11,21.94-167.82,72.31-137.5,145.47,22.71,54.78,129.13,117.64,176.96,156.04,37.57,30.16,84.21,69.5,75.52,122.98-.57,1.33-.63,1.88-1,3-.25.74-1.44,1.64-1,3h-50c-1.58-1.74-7.58-6.95-9.48-7.02-.75-.03-2.21,5.8-2.52,7.02h-20c1.7-2.56,6.42-17.44,5.51-19.05s-14.63-8.84-17.51-9.95v14.5c0,3.65-3.8,10.44-4,14.5h-20c3.36-9.46,5.57-19.33,4.99-29.49-.21-3.62-.88-10.17-3.63-12.37-1-.8-18.66-9.95-19.35-9.14s4.7,17.28,5.03,21.46c.82,10.31-.68,19.87-4.04,29.54h-21c10.84-20.57,5.91-44.07-5.68-63.07l-24.81-9.94,12.37,20.63c7.74,16.8,9.76,35.21,2.12,52.38h-21c11.18-24.11,4.57-47.04-9.37-68.13-1.87-2.83-10.14-14.34-12.1-15.9-6.16-4.9-22.79-7.19-30.04-11.95l23.33,27.66c10.8,14.79,17.83,33.05,16.06,51.69-.57,6-3.12,10.86-3.87,16.63h-22c20.82-42.3-16.17-80.3-44.73-106.97l-34.76-12.04,36.01,31.99c21.58,23.52,41.68,54.26,27.49,87.02h-22c18.69-39.62-11.72-74.97-38.99-100.51-8.24-7.72-27.3-25.06-36.36-30.13s-26.82-7.29-37.15-12.37c-1.33.51,1.17,2.06,1.59,2.41,25.65,21.15,52.14,36.44,74.41,62.59,18.91,22.2,32.15,48.73,20.49,78.01h-23c14.36-30.72-1.12-59.84-21.49-83.01-17.66-20.09-65.91-59.5-89.17-71.84-9.36-4.96-24.11-7.5-34.34-11.16v-14c17.35,8.05,31.02,24.03,49.98,28.51L0,1018v-23c8.2,3.79,14.89,10.1,22.27,15.23,25.24,17.53,51.23,34.07,76.66,51.34,7.63,5.18,14.98,14.39,25.08,13.93L0,988v-26c26.26,23.01,54.95,42.96,83.53,62.97,26.69,18.7,54.3,36.01,80.39,55.61,8.56,6.43,16.52,16.66,27.06,18.93-60.06-53.98-134.02-90.84-190.98-148.51v-49Z"/><path class="b" d="M455,1197c21.06-49.48-43.73-102.59-77.53-129.97-44.87-36.35-148.18-100.5-163.18-155.82-15.87-58.52,60.38-99.85,103.49-120.92,131.21-64.14,300.27-102.18,443.2-133.8,302.57-66.93,607.73-121.32,906.46-204.54,80.56-22.44,213.47-59.01,277.03-111.97,81.43-67.86,1.41-130.06-57.16-172.79-46.93-34.24-98.34-63.21-140.31-103.69-.16-.74,1.04-.68,1.48-.49,2.14.96,12.08,11.5,15.03,13.97,56.11,46.84,126.21,81.17,179,131.05,94.2,89.01,11.29,142.48-73.84,180.15-57.37,25.38-121.05,44.39-181.46,61.54-265.76,75.45-539.02,128.49-809.25,185.75-166.53,35.29-358.47,73.36-513.64,142.36-74.03,32.92-180.67,86.97-98.84,177.19,56,61.74,142.3,100.14,198.03,162.97,20.27,22.85,37.87,53.93,25.49,85.01h-35c.13-.94-.19-2.15,0-3,.15-.69.74-1.42,1-3Z"/><path class="b" d="M2159,732c-55.92,18.82-113.51,37.55-166.21,64.29s-127.54,72.26-79.8,138.96c3.15,4.4,15.52,18.85,19.51,21.75,1.29.94,12.98,6.54,13.49,6,.98-1.03-1.41-2.82-1.99-3.5-11.85-14.15-25.67-28.21-31.5-46.5-18.13-56.89,57.11-97.98,98.47-118.52,47.23-23.45,98.05-40.8,148.02-57.48v7c-47.51,17.27-96.27,34.5-140.67,58.83-32.07,17.57-83.12,50.09-81.37,91.72,1.25,29.81,26.65,56.4,47.52,75.49,8.01,7.33,15.4,13.79,26.52,15.95-32.31-29.2-81.27-72.27-53.81-120.3,13.78-24.09,41.62-43.11,65.13-56.87,42.99-25.16,90.23-42.22,136.67-59.83v8c-48.53,19.72-101.25,39.13-142.92,71.58-76.43,59.54-29.53,113.65,28.46,160.37,9.41,7.58,19.41,16.62,31.46,19.03-26.19-21.79-55.92-43.88-74.42-73.07-37.72-59.55,14-100.64,61.74-128.09,30.28-17.41,63.11-31.27,95.67-43.83v9c-30.19,12.09-60.3,26.06-87.53,43.97-24.82,16.33-55.41,41.43-57.51,73.48-2.73,41.61,47.51,83.42,77.14,106.94,9.8,7.78,29.41,24,39.55,29.45,2.67,1.43,6.37,2.45,9.34,3.15-30.99-26.52-69.58-51.3-93.98-84.51-63.82-86.84,49.06-136.87,112.98-166.48v10c-31.45,15.59-66.36,33.93-89.51,60.99-28.62,33.46-20.36,65.21,5,97.03,22.95,28.8,55.66,51.43,84.52,73.98v16c-3.03-.36-2.33.8,0,2v12l-32.29-24.21-35.71-11.78,68,50.99v14c-14.74-12.2-30.23-23.46-45.47-35.03-16.61-12.61-42.65-35.78-61.01-42.99-8.93-3.5-18.45-5.87-27.52-8.97,15.08,14.29,33.18,25.26,49.91,37.58,28.59,21.04,57.55,41.82,84.09,65.41v19c-14.77-16.28-31.61-31.17-48.79-44.95-21.86-17.52-45.3-33.24-67.68-50.08-14.52-10.93-29.98-25.49-44.61-35.39-10.24-6.93-28.27-9.84-39.9-15.09,48.09,43.41,104.76,76.13,154.45,117.54,17.06,14.22,33.79,30.74,46.53,48.97v68h-10c1.63-7.16,4.53-14.01,5.04-21.46,2.87-41.55-46.21-84.69-75.83-108.54-48.12-38.74-102.63-70.34-146.26-114.46l-36.45-14.55,4.98,7.02c59.4,63.47,150.63,101.55,208.03,165.97,21.2,23.8,38.31,53.53,25.49,86.01h-23c21.92-48.12-24.34-90.76-57.52-118.98-51.32-43.64-126.25-83.39-168.89-133.11-1.49-1.74-11.53-14.45-11.57-15.41-.08-1.92,1.82-.86,2.63-.67,3.71.88,7.67,4.63,11.35,3.68-56.54-73.53,43.37-124.78,98.82-150.19,55.93-25.63,114.7-44.46,173.19-63.31v7Z"/><path class="b" d="M490,1203c22.38-50.31-27.88-95.59-62.53-124.97-48.95-41.51-117.67-81.34-156.45-131.55-66.63-86.28,46.41-140.54,112.47-169.47,147.63-64.67,325.39-101.13,483.29-134.71,252.64-53.73,505.57-104.22,755.84-168.16,81.82-20.9,167.75-43.05,246.35-73.65,72.07-28.05,204.48-84.33,121.99-177.96-52.44-59.52-135.18-96.27-194.19-149.53l-13.28-14c10.64,8.68,20.53,18.45,31.28,26.95,54.56,43.13,128.94,80.98,175.74,130.99,86.87,92.82-24.16,147.68-101.55,179.55-84.74,34.89-179.63,58.76-268.56,81.44-171.38,43.71-345.37,82.62-518.39,119.61-171.42,36.65-345.67,67.8-514.25,115.75-82.96,23.59-227.14,66.71-288.8,126.2-67.18,64.82,10.44,126.69,61.54,166.49,41.56,32.36,90.32,62.46,127.49,99.51,25.17,25.09,52.28,60.13,36.99,97.51h-35Z"/><path class="b" d="M527,1203c14.38-28.68-.02-59.95-19.03-82.47-56.77-67.27-156.53-110.71-204.79-181.21-52.1-76.12,40.63-127.05,99.14-154.49,114.97-53.93,255.63-87.19,379.67-115.33,318.18-72.19,640.21-129.27,955.23-214.77,64.7-17.56,132.93-37.1,194.46-63.54,49.3-21.19,145.43-66.3,119.09-134.44-23.81-61.61-133.69-118.99-185.23-160.77-.75-.61-5.74-3.82-4.53-4.96.98-.92,19.47,14.24,21.68,15.81,46.41,33.19,102.6,66.05,142.34,106.65,90.07,92.01-14.13,148.17-93.53,181.53-61.28,25.75-128.28,45.14-192.48,62.52-306.44,82.95-619.48,139.96-929.03,209.97-116.47,26.34-240.56,55.79-350.97,101.03-66.98,27.44-198.34,84.68-128.99,174.96,52.98,68.96,148.32,108.95,206.49,174.51,20.49,23.09,38.61,53.64,25.49,85.01h-35Z"/><path class="b" d="M564,1203c23.54-53.74-32.62-98.83-69.23-128.99-45.99-37.89-137.16-96.01-162.32-147.97-37.03-76.48,73.87-127.55,128.87-151.22,112.06-48.23,242.31-78.68,361.46-105.54,281.26-63.41,564.29-118.09,844.42-186.58,100.33-24.53,208.76-50.66,303.46-91.54,46.82-20.21,136.76-63.56,119.81-127.17-14.83-55.64-110.9-113.54-156.4-146.6-7.65-5.56-15.35-11.38-22.81-17.19-.45-.35-3.17-1.58-1.77-2.23,9.32,4.5,16.82,11.91,25.16,17.84,46.48,33.04,145.01,92.57,160.59,148.41,18.04,64.65-75.05,109.57-122.58,129.94-94.88,40.64-204.05,66.97-304.47,91.53-278.77,68.18-560.52,122.78-840.22,186.78-120.5,27.57-256.61,59.18-368.34,111.66-70.43,33.08-157.2,84.09-86.16,167.87,49.04,57.84,128.24,97.1,184.04,149.96,26.63,25.23,58.18,61.95,41.47,101.03h-35Z"/><path class="b" d="M602,1203c18.81-40.14-13.01-77.84-40.48-104.04-53.81-51.32-157.08-106.75-190.91-170.06-36.8-68.88,46.55-115.81,98.03-140.75,112.85-54.68,253.9-86.74,376.35-114.65,301.96-68.83,606.86-126.15,907.22-201.78,76.53-19.27,155.6-40.19,229.04-68.96,56.04-21.95,179.18-73.84,141.13-152.63-26.49-54.86-118.21-108.65-167.31-145.69-1.13-.85-3.73-2.84-3.57-4.42,10.19,5.84,19.06,13.61,28.6,20.39,43.52,30.95,126.34,83.6,147.77,132.23,28.87,65.52-47.61,108.6-96.5,132.22-90.97,43.94-203.25,71.27-301.54,95.46-261.85,64.46-526.54,117.91-789.86,176.14-146.05,32.3-317.95,66.86-452.32,131.68-53.69,25.9-133.94,72.01-93.43,142.15,35.59,61.63,141.44,118.38,196.8,168.2,27.63,24.86,63.25,64.86,44.99,104.51h-34Z"/><path class="b" d="M2159,318c-26.14,35.24-68.88,57.54-108.33,75.17-114.32,51.1-252.38,81.04-374.66,109.34-252.44,58.43-506.4,110.37-759.03,167.97-120.51,27.48-252.18,56.67-365.66,105.34-79.08,33.91-186.92,90.31-98.37,183.7,50.06,52.8,118.59,88.7,173.06,136.97,29.63,26.26,65.37,63.3,48.99,106.51h-35c5.66-14.57,7.36-27.4,3.15-42.65-14.13-51.09-106.4-110.33-148.06-142.94-63.31-49.54-147.9-115.83-56.56-189.39,60.39-48.64,171.64-83.06,246.47-104.53,178.13-51.09,364.78-85.01,546.01-124.99,196.43-43.33,397.24-83.79,591.62-134.38,89.04-23.17,206.04-54.33,283.29-103.71,20.4-13.04,41.55-29.95,53.08-51.42v9Z"/><path class="b" d="M2159,354c-45.43,30.58-96.62,51.32-148.23,69.27-83.13,28.92-170.83,50.29-256.57,70.43-245.62,57.71-493.12,108.15-739.24,163.76-141.3,31.92-301.19,63.68-433.64,121.36-51.88,22.6-155.05,72.87-118.5,144.86,30.38,59.83,135.05,118.76,188.65,162.35,32.87,26.73,82.18,69.78,61.53,116.97h-35c20.14-41.23-14.54-79.38-42.99-105.51-48.91-44.94-109.28-78.73-156.89-125.11-101.59-98.98-1.36-156.75,89.2-195.55,128.32-54.98,280.17-85.75,416.64-116.36,234.78-52.65,470.42-101.64,705.05-154.95,102.6-23.31,207.86-46.94,307.53-80.47,56.39-18.97,113.76-41.59,162.46-76.04v5Z"/><path class="b" d="M2159,376c-74.94,39.05-157.47,64.47-238.99,86.51-146.07,39.49-296.21,68.22-444.02,100.98-204.14,45.24-411.49,87.78-614,139-81,20.49-169.28,43.82-245.67,77.33-71.56,31.39-172.68,85.01-97.3,172.65,56.27,65.43,149.78,103.93,208.51,167.46,20.64,22.32,39.1,52.23,24.46,83.06h-35c21.21-43.24-17.04-82.11-46.99-108.51-52.98-46.72-131.2-88.76-174.43-142.57-66.19-82.39,18.7-133.39,86.74-165.09,91.54-42.66,200.21-69.69,298.47-93.53,281.35-68.27,566-123.86,848.44-187.56,103.17-23.27,209.89-47.65,309.73-82.27,41.12-14.26,82.05-30.24,120.04-51.46v4Z"/><path class="b" d="M2159,391v3c-122.85,53.17-255.3,84.32-385.77,113.73-283.27,63.86-568.6,119.58-850.44,189.56-91.52,22.73-191.48,48.19-277.47,86.53-65.44,29.17-160.25,81.25-94.29,162.65,57.77,71.29,159.15,109.21,219.49,177.51,18.87,21.37,35.14,50.5,21.49,79.01h-35c18.93-40.44-12.1-75.64-39.99-101.51-53.87-49.99-128.09-86.85-176.99-141.01-76-84.17-.17-136.07,75.3-171.65,94.03-44.33,208.47-71.73,309.66-96.34,274.05-66.64,550.94-121.45,826.22-182.78,138.17-30.78,277.51-62.76,407.79-118.71Z"/><path class="b" d="M2159,409c-84.93,34.13-173.99,57.99-262.99,79.51-204.2,49.38-411.25,88.45-616.23,134.77-132.72,30-267.59,59.6-398.8,95.2-83.56,22.68-221.91,60.44-286,118-77.18,69.31,15.06,137.06,70.7,177.33,46.68,33.78,142.89,89.4,165.82,141.18,6.78,15.32,7.64,32.68.5,48h-35c20.35-41.9-15.7-79.9-44.99-105.51-56.16-49.11-156.48-100.99-194.43-162.57-47.99-77.86,53.5-128,111.74-153.1,110.52-47.63,240.51-76.33,357.85-104.15,240.46-57,482.43-106.43,723.86-159.14,137.6-30.04,276.84-60.97,407.96-112.54v3Z"/><path class="b" d="M2159,423c-198.36,69.47-406.79,105.4-612.01,149.49-198.46,42.63-399.84,86.32-596,138-90.95,23.96-233.83,60.67-307.93,117.07-88.1,67.06-13.72,131.26,48.03,176.85,50.12,37,137.36,84.52,171.29,134.71,13.25,19.6,19.84,41.09,9.62,63.88h-35c19.56-37.95-10.31-73.93-36.99-98.51-54.59-50.3-190.73-121.62-214.31-187.69-26.02-72.88,88.32-121.56,140.31-142.28,67.36-26.85,140.73-46.73,210.98-65.02,274.65-71.51,553.62-126.08,831.02-185.98,131.79-28.46,264.07-57.89,390.99-103.51v3Z"/><path class="b" d="M2159,436c-207.11,66.86-422.44,103.83-635.04,149.46-170.89,36.68-343.34,75.5-512.39,119.61-85.93,22.43-180.54,47.11-261.25,83.75-69.52,31.57-154.8,81.76-81.84,163.19,47,52.46,125.01,91.65,181.43,135.57,33.57,26.13,82.17,67.74,62.08,115.42h-34c4.97-13.04,7.22-23.06,4.56-37.06-8.34-43.83-78.6-91.21-113.62-116.38-59.06-42.44-211.04-126.34-120.95-210.08,54.48-50.64,173.25-86.16,245.02-106.98,83.51-24.24,169.35-44.77,253.98-65.02,129.87-31.07,260.35-60.22,390.98-88.02,207.99-44.26,418.67-80.5,621.04-146.46v3Z"/><path class="b" d="M2159,445v3c-201.75,61.25-409.97,97.52-616.04,141.46-156.22,33.32-312.4,68.93-466.97,109.03-95.31,24.73-202.11,51.67-291.35,92.65-66.07,30.34-148.68,80.11-80.16,157.87,61.24,69.49,163.83,105.7,225.03,173.97,19.89,22.19,35.79,49.89,22.49,80.01h-34c9.99-18.84,7.95-34.99-.83-53.67-23.27-49.53-115.91-103.03-161.09-135.91-54.97-40-145.27-106.09-68.61-174.44,61.66-54.98,190.65-90.94,270.53-113.47,187-52.76,381.59-95.69,571.81-136.19,210.45-44.81,423.27-81.43,629.19-144.31Z"/><path class="b" d="M2159,456v3c-227.72,65.28-461.97,104.34-693.21,155.29-143.28,31.57-288.62,65.6-429.8,105.2-68.76,19.29-143.71,41.01-208.66,70.34-68.72,31.02-154.77,80.84-81.83,161.2,61.51,67.77,162.87,103.87,223.54,171.46,19.63,21.87,36.27,50.83,22.97,80.53h-34c20.32-37.21-9.92-73.14-35.99-97.51-57.01-53.3-135.01-88.3-189.54-143.46-81.17-82.11-7.37-133.45,69.17-168.88,63.71-29.5,136.47-50.78,204.14-69.86,138.68-39.09,281.44-72.52,422.18-103.82,243.73-54.21,490.97-94.46,731.04-163.46Z"/><path class="b" d="M2159,469c-233.9,65.18-474.16,104.36-711.01,157.49-134.81,30.24-271.53,63.01-403.99,102.01-74.86,22.04-201.2,58.63-258.53,110.47-65.62,59.34-6.59,112.63,44.63,151.42,46.91,35.53,99.75,64.48,145.37,101.63,31.67,25.78,74.54,65.88,55.52,110.98h-32c5.01-13.5,7.07-27.66,3.3-41.8-12.19-45.74-90.44-95.78-128.37-122.63-61.96-43.86-205.31-123.78-100.41-205.54,60.8-47.38,165.3-78.5,239.48-100.52,149.29-44.33,304.77-80.51,456.99-114.01,229.7-50.56,462.62-88.55,689.01-152.49v3Z"/><path class="b" d="M2159,477v2c-222,60.27-449.53,97.62-674.04,147.46-125.02,27.76-251.22,58.28-374.18,93.82-69.59,20.12-144.56,42.34-210.14,72.86-68.97,32.09-149.44,82.13-73.67,160.39,60.7,62.69,152.82,98.46,212.99,161,22.61,23.5,44.81,54.52,30.04,88.47h-32c22.34-48.23-26.13-91.35-60.08-118.42-54.48-43.44-126.58-79.94-173.43-130.57-73.77-79.7,10.43-129.72,78.84-161.19,72.17-33.21,155.05-56.83,231.68-78.32,106.93-30,216.39-56.73,324.77-81.23,239.29-54.08,482.04-93.34,719.23-156.27Z"/><path class="b" d="M2159,489c-250.51,64.64-506.53,105.47-758.21,165.29-112.82,26.81-228.54,56.15-338.58,92.42-60.29,19.87-165.86,55.76-207.73,103.27-44.71,50.74,1,96.18,41.04,128.99,53.02,43.44,117.17,75.79,168.49,121.51,27.95,24.9,61.28,62.33,43.99,102.51h-31c18.03-36.5-7.33-69.68-32.12-94.33-40.9-40.68-95.37-70.99-141.79-105.26-69.02-50.94-136.57-111.89-36.61-179.43,52.95-35.78,127.79-60.66,188.75-80.25,111.96-35.96,228.99-65.49,343.56-92.44,252.44-59.39,509.26-99.79,760.21-165.29v3Z"/><path class="b" d="M2159,496v2c-290.62,72.96-587.68,117.71-877.21,195.29-97.26,26.06-205.95,55.79-297.15,97.85-61.96,28.58-150.58,77.7-85.15,153.87,49.97,58.17,137.27,98.84,196.72,150.04,30.7,26.44,66.04,63.78,49.79,107.94h-30c21.48-51-29.23-94.56-64.79-122.95-36.18-28.88-76.16-52.83-113.12-80.64-38.34-28.86-106.64-81.37-72.9-135.72,30.07-48.43,130.39-85.95,183.27-104.73,112.3-39.88,233.32-70.77,349.33-98.67,252.4-60.7,509.38-101.23,761.21-164.29Z"/><path class="b" d="M2159,505v2c-309.95,76.79-627.6,121.43-934,212.5-70.24,20.88-147.85,45.16-213.36,77.64-58.67,29.08-133.22,76.05-73.15,146.87,51.29,60.47,139.87,100.03,199.53,154.47,28.84,26.32,61.33,62.28,44.99,104.51h-30c20.65-43.39-17.69-84.03-47.98-110.51-56.17-49.12-138.85-89.6-185.53-145.47-66.9-80.07,30.93-130.58,94.83-159.19,93.59-41.9,204.25-72.13,303.67-98.33,277.65-73.16,562.15-116.46,841.01-184.49Z"/><path class="b" d="M2159,514v2c-303.47,74.77-615.67,116.87-914.79,208.71-74.42,22.85-201.13,62.33-258.23,113.77-58.05,52.31-21.35,98.04,26,138.03,57.53,48.59,135.5,87.11,184.53,143.47,20.43,23.48,35.54,51.34,23.49,83.01h-29c16.6-37.65-8.65-72.63-34.48-98.04-58.14-57.22-142.33-95.36-195.03-155.94-68.88-79.17,24.74-130.41,89.16-159.87,82.45-37.72,178.72-65.64,266.34-89.66,277.3-76,562.6-118.22,842.02-185.48Z"/><path class="b" d="M2159,525c-258.75,62.39-523.03,101.84-780.01,171.49-89.44,24.24-188.25,52.74-271.98,92.02-68.36,32.08-156.07,81.58-82.53,162.5,61.55,67.73,177.49,114.17,224.33,189.67,12.01,19.36,15.67,40.34,8.19,62.31h-29c19.47-42.26-14.84-79.62-43.66-106.34-42.48-39.38-92.65-69.47-137.82-105.68-56.41-45.22-106.7-98.62-31.44-158.39,65.62-52.12,190.84-89.88,271.92-114.08,285.72-85.31,582.63-125.82,872-196.5v3Z"/><path class="b" d="M2159,531v2c-263.41,64.16-533.28,102.53-794.02,177.48-71.61,20.59-149.29,44.8-216.66,76.34-79.3,37.12-162.94,88.73-74.82,175.17,52.03,51.04,121.94,86.55,175.51,136.49,27.67,25.8,60.84,64.07,43.99,104.51h-29c23.27-48.03-26.21-93.7-59.52-121.98-49.51-42.04-123.24-82.61-163.46-131.54-59.36-72.24,3.67-117.5,65.96-149.99,85.43-44.57,193.75-75.7,287-101,251.97-68.36,511.14-106.97,765.01-167.49Z"/><path class="b" d="M2159,542c-224.04,52.98-452.2,89-675.21,146.29-97.15,24.96-203.35,54.54-294.15,96.85-68.26,31.81-161.56,83.16-88.16,165.87,56.9,64.12,147.1,102.5,203.03,166.97,19.85,22.88,38.85,54.34,24.49,85.01h-28c6.43-13.47,7.68-28.67,3.54-43.04-15.72-54.73-108.05-112.29-152.46-146.54-36.4-28.07-113.08-84.81-93.14-137.97,16.32-43.51,86.86-77.81,127.38-95.62,72.89-32.04,153.6-56.43,230.46-77.54,244.26-67.07,496.03-104.04,742.22-163.28v3Z"/><path class="b" d="M2159,548v2c-199.99,47.22-403.16,81.03-602.82,129.68-110.63,26.96-237.84,60.09-339.86,110.14-71.65,35.15-146.48,84.4-73.29,165.66,50.13,55.65,128.48,93.75,182.99,147.01,26.34,25.74,54.97,61.42,39.99,100.51h-28c14.24-33.03-2.89-63.55-24.49-88.01-54.4-61.63-136.88-99.49-191.03-160.97-75.23-85.41,23.57-139.23,93.84-171.19,124-56.39,274.52-92.4,407.66-122.34,177.77-39.97,357.44-71.64,535.01-112.49Z"/><path class="b" d="M2159,556v2c-192.72,45.6-388.46,78.56-580.82,125.68-104.12,25.51-219.34,56.12-316.17,101.83-70.72,33.39-156.69,84.29-83.53,167.5,49.27,56.03,125.41,94.63,180.53,146.47,27.41,25.78,59.48,63.4,42.99,103.51h-28c23.07-51.7-31-98.29-66.53-127.97-45.4-37.93-150.2-102.58-169.77-156.23-23.52-64.47,55.01-106.83,102.62-129.98,97.29-47.31,217-78.91,322.26-104.74,197.43-48.45,398.39-82.17,596.42-128.08Z"/><path class="b" d="M2159,564v2c-192.34,45.82-387.93,78.36-579.63,126.87-87.68,22.19-181.44,48.37-264.05,84.95-48.24,21.36-146.64,68.22-125.38,134.73,18.08,56.54,133.16,126.55,180.53,165.47,34.88,28.66,88.48,74.41,67.52,124.98h-27c9.01-19.79,5.86-42.42-4.48-61.02-26.71-48.03-97.63-92.85-140.98-127.02-45.07-35.52-127.24-96.43-80.56-160.48,39.84-54.67,168.08-99.14,232.24-119.76,85.1-27.36,172.56-48.54,259.78-68.22,160.21-36.16,321.97-65.6,482.01-102.49Z"/><path class="b" d="M2159,663c-91.37,22.14-182.94,44.48-273,71.5-47.58,14.27-96.12,30.03-141.99,49.01-4.63,1.92-11.3,6.07-15.71,7.3-1.21.34-2.9.76-2.29-1.29.78-2.67,5.63-8.03,6.98-11.03.16-.75-.97-.64-1.47-.48-12.16,3.88-29.65,12.73-41.54,18.46-76.23,36.73-138.65,87.44-57.99,165.04,56.41,54.27,132.47,88.92,191.49,140.51,28.68,25.07,60.31,59.77,44.53,100.97h-27c19.17-38.26-11.26-73.95-37.99-98.51-37.22-34.2-83.4-61.05-124.33-90.67-55.51-40.17-146.49-105.23-70.7-174.33,28.03-25.56,90.71-56.93,127.2-67.79,4.39-1.31,5.39-.64,1.81,2.81-.15.77.91.59,1.5.51,9.01-1.33,29.42-11.02,39.53-14.47,124.33-42.5,253.67-71.22,380.96-103.54v6Z"/><path class="b" d="M2159,632v5c-102.17,23.69-204.55,46.93-306.01,73.49-15.99,4.19-32.58,9.84-48.52,13.48-.57.13-1.62.31-1.46-.47,4.72-4.18,11.01-6.37,16.48-9.51l-1.73-.75c-73.43,20.24-148.57,39.98-218.43,70.58-49.12,21.51-141.3,66.24-114.32,133.68,26.88,67.2,166.25,136.7,223.01,188.99,25.92,23.88,57.05,59.07,38.99,96.51h-27c.32-3.97,2.7-6.87,3.7-10.8,13.2-51.43-53.82-99.83-89.8-126.61-45.98-34.24-152.6-97.47-167.06-153.94-15.93-62.19,64.88-103.46,110.96-124.34,81.85-37.08,171.22-58.58,257.68-82.32l1.5.51-3.99,2.52c-.28,1.63,1.26,1,2.26.77,22.36-5.1,44.6-11.66,66.91-17.1,85.37-20.83,171.09-40.38,256.82-59.68Z"/><path class="b" d="M2159,649v5c-139.27,33.87-279.45,66.01-414.64,113.88-1.28.58-1.84-.28-1.35-1.36,1.1-2.45,8.18-7.21,9.99-10.02.15-.76-.93-.62-1.47-.48-20.98,5.41-50.1,17.84-70.51,26.5-71.55,30.35-175.98,82.99-97.04,170.01,60.38,66.56,160.44,103.39,220.4,169.6,20.69,22.85,35.68,49.45,23.62,80.88h-28c20.54-35.22-9.14-72.05-33.99-95.51-44.9-42.4-103.71-74.16-152.49-112.51-36.38-28.6-92.42-75.95-66.71-127.65,26.24-52.77,139.08-94,193.22-111.78,7.43-2.44,15.39-5.22,22.96-6.53l-3,3.49c-.15.77.93.62,1.47.48,17.75-4.55,35.42-11.72,53.08-16.92,113.54-33.47,229.26-59.81,344.44-87.06Z"/><path class="b" d="M2159,645c-130.84,31.59-262.36,61.78-391,100.99,3.52-5.42,10.56-7.1,14.99-11.5.16-.76-.93-.62-1.47-.48-48.79,12.88-106.27,33.03-152.2,53.8-86.83,39.27-162.34,92.07-67.84,180.23,47.74,44.53,109.02,76.99,160.75,116.99,34.61,26.76,84.76,68.67,65.77,117.96h-28c23.51-49.39-29.04-92.76-63.53-119.97-40.99-32.35-86.36-59.16-126.95-92.05-36.6-29.67-86.44-75.41-58.92-126.87,27.11-50.68,134.94-90.24,187.85-108.15,27.95-9.46,66.01-23.14,94.29-28.71.82-.16,2.91-.52,3.25-.24,1.09.89-6.45,3.55-2.52,3.97,120.65-34.72,243.38-61.93,365.52-90.98v5Z"/><path class="b" d="M2159,672c-97.28,24.31-195.07,48.53-290.21,80.29-50.24,16.77-100.18,35.57-146.32,61.68-1.72.25-1.53.06-1.51-1.5.05-3.32,1.55-6.32,1.04-9.99-.16-1.15.4-2.02-1.48-1.46-2.97.88-13.59,6.99-17.06,8.95-55.84,31.42-99.69,75.8-46.5,136.56,49.14,56.12,130.48,94.73,189.5,141.5,33.3,26.39,79.81,67.73,60.53,114.97h-26c.68-4.37,6-13.75,6-17.5v-16c0-2.58-5.36-16.02-6.83-19.17-22.33-47.95-99.71-92.98-142.66-123.34-35.62-25.17-107.35-73.45-118.04-116.96-12.63-51.41,45.73-87.9,84.49-107.58,2.67-1.36,21.13-10.22,22.05-9.44.47.4-3.78,5.79-.52,4.97,8.65-2.17,25.03-11.56,34.54-15.47,47.48-19.51,97.74-35.41,146.99-50.01,83.28-24.69,167.81-45.16,252-66.5v6Z"/><path class="b" d="M2159,629l-311.49,73.01c-1.87-1.41-.52-1.61.77-2.25,5.79-2.88,12.65-5.43,18.72-7.78-.41-1.9-5.84,0-7.2.31-91.45,21.24-193.08,47.84-279.78,83.22-55.15,22.5-168.9,73.58-128.39,150.36,31.02,58.79,135.61,115.52,189.27,157.73,33.66,26.47,87.97,71.14,66.1,119.4h-28c20.51-39.45-13.41-77.57-40.99-102.51-53.14-48.06-181.72-117.8-205.49-181.51-22.67-60.73,45.44-101.43,90.79-124.18,91.39-45.85,210.19-74.89,309.87-99.13,6.44-1.57,49.4-12.77,51.82-11.66,1.8.82-4.37,1.43-3.99,2.98l277.99-63.99v6Z"/><path class="b" d="M2159,575c-61.38,12.66-122.51,26.61-183.81,39.69-153.37,32.74-309.69,61.89-460.19,105.81-67.34,19.65-143.08,43.98-204.68,77.32-69.24,37.48-121.94,84.78-54.94,158.8,42.69,47.16,104.78,82.59,154.09,123.4,34.16,28.26,86.63,73.44,65.52,122.98h-27c14.49-30.45-1.24-60.78-21.06-84.21-51.47-60.83-133.48-99.32-186.93-158.59-71.28-79.05-9.91-128.22,62.78-165.92,82.26-42.67,185.33-71.57,275.2-94.8,191.87-49.58,388.07-82.32,581.01-127.49v3Z"/><path class="b" d="M2159,615v5l-260.5,60-1.49-.5c6.92-4.4,15.4-6.33,22.99-9.52l-7,.5c-127.21,32.4-263.19,57.29-383.67,110.33-58.75,25.87-161.14,77.11-108.14,155.49,38.17,56.45,126.17,104.36,180.71,147.29,34.72,27.33,85.02,69.7,66.1,119.4h-28c13.8-29.51.49-56.05-18.49-79.01-52.05-62.97-142.67-101.74-198.16-163.33-76.79-85.24.11-136.68,76.29-172.51,102.99-48.45,229.34-77.48,340.34-103.66,30.43-7.18,66.46-17.7,96.77-22.23,1.34-.2,5.69-.46,4.24.73-.93.76-4.96.09-4.99,2l222.99-49.99Z"/><path class="b" d="M2159,607v5l-198.76,44.75-4.24-.73c7.55-2.62,14.98-5.5,22.62-7.9,2.43-.76,2.9-.76-.02-1.02-120.3,27.6-241.69,52.31-359.82,88.2-66.18,20.11-179.16,57.04-226.31,107.69-50,53.71-7.89,101.61,35.5,139.53,40.45,35.35,88.14,64.19,130.48,97.52,35.6,28.03,90.22,71.69,69.54,122.96h-27c6.56-16.8,6.79-32.84.19-49.69-18.88-48.24-111.21-106.39-153.09-138.91-48.9-37.98-130.49-100.01-74.63-166.42,41.78-49.68,152.09-87.74,213.76-107.24,135.33-42.8,276.14-69.33,414.27-101.74l-1.49,3,159-34.99ZM1999,642.01c-1.4-.72-2.67.63-1.99.98,1.4.72,2.67-.63,1.99-.98Z"/><path class="b" d="M2159,681c-88.22,22.86-176.81,45.77-262.96,75.54-50.89,17.59-111.74,40.11-155.37,71.63-2.47,1.78-9.7,9.46-12.05,8.77-2.86-.83-5.05-12.53-5.64-12.94s-2.17.11-2.96.51c-3.21,1.62-13.84,10.19-17.03,12.97-68.04,59.19-8.89,113.48,43.1,152.93,49.63,37.66,107.01,68.28,153.93,109.07,28.87,25.1,63.21,62.08,45.99,103.52h-25c21.38-46.48-23.74-88.39-56.52-114.98-55.33-44.89-132.82-83.16-179.51-135.49-43.91-49.23-33.81-87.84,17.11-124.94,3.07-2.23,14.18-9.96,16.94-11.07,1.14-.46,1.84-.98,3.02-.07,1.77,1.36-.25,5.28,2.43,4.54,2.83-.78,15.05-9.56,19.2-11.81,36.08-19.52,75.12-34.62,113.8-48.2,98.41-34.54,200.7-59.4,301.52-85.98v6Z"/><path class="b" d="M2159,599v5l-138.52,30.98c-1.81-1.4-.44-1.61.8-2.22,6.98-3.44,16.81-4.89,24.21-7.77l-1.71-.73c-152.82,35.12-308.5,63.78-458.55,109.47-66.77,20.33-201.61,64.24-240.67,123.33-33.62,50.85,15.79,99.39,52.42,130.45,46.65,39.55,101.93,70.96,147.03,111.97,27.63,25.13,63.51,63.36,44.99,103.51h-28c20.52-41.16-14.57-78.76-42.48-105.04-51.88-48.85-119.75-84.23-167.87-137.07-74.41-81.71-6.94-132.49,67.99-169.75,76.11-37.85,167.97-63.32,250.35-84.65,132.77-34.38,267.69-60.47,401.5-90.5,1.34,2.1-4.4,1.16-3.48,3.01l92-19.99ZM2066,619.01c-1.4-.72-2.67.63-1.99.98,1.4.72,2.67-.63,1.99-.98Z"/><path class="b" d="M2159,685v5c-78.31,21.61-156.97,42.72-233.52,69.98-52.04,18.54-134.18,49.51-170.45,91.55-1.52,1.76-5.68,9.04-6.14,9.35-3.9,2.61-13.09-14.35-15.32-13.85-1.28.29-10.09,11.65-11.38,13.65-39.44,61.18,49.9,120.11,92.5,150.13,47.63,33.56,143.58,88.07,167.69,140.31,8.13,17.61,9.22,33.55,2.62,51.88h-25c22.25-46.95-25.47-90.28-58.54-116.96-46.51-37.53-99.89-67.22-145.81-105.23-33.16-27.45-77.76-70.71-49.47-117.13,2.83-4.64,17.47-22.71,21.87-24.21,3.65-1.24,3.84,5.08,6.39,4.5.93-.21,8.38-7.64,10.08-8.95,45.88-35.42,110.8-59.64,165.52-78.48,81.57-28.09,165.37-50.23,248.96-71.54Z"/><path class="b" d="M2159,591v5c-21.3,3.06-43.36,11.28-64.52,14-.8.1-3.61.35-1.97-.99l24.97-8.01-1.71-.73c-139.78,31.87-280.76,58.87-419.99,93.03-92.6,22.72-193.81,49-280.47,88.53-73.1,33.34-165.23,86.78-88.83,173.2,52.61,59.5,133.27,97.18,189.41,153.59,24.69,24.81,49.81,57.29,35.1,94.4h-28c17.89-36.89-9.54-73.65-34.99-98.51-51.99-50.81-121.5-87.52-171.04-139.96-85.16-90.15,1.82-144.7,82.35-181.7,76.96-35.36,165.91-59.98,248.05-80.95,163.19-41.67,329.26-71.83,493.39-109.61,1.2-.63,5.49-.3,4.24.73-.59.49-5.92.37-4.48,2.03l18.49-4.02Z"/><path class="b" d="M2159,694v6c-73.67,21.01-147.95,41.52-219.52,68.98-45.42,17.43-137.88,55.86-157.21,102.79-1.23,2.98-2.8,12.74-3.27,13.23-1.91,1.98-18.81-13.53-20.58-13.94-2.51-.58-4.54,7.94-4.96,9.89-11.45,52.96,63.83,103.46,101.23,129.86,46.77,33.02,141.88,88.19,165.49,139.51,1.34,2.91,6.83,17.03,6.83,19.17v21c0,1.86-4.04,9.59-4,12.5h-24c.95-5.43,3.82-10.29,4.75-15.75,5.64-33.04-21.25-64.02-43.73-84.76-43.59-40.21-96.79-70.28-143.93-106.07-35.31-26.8-95.64-73.86-73.79-124.62,7.9-18.36,9.88-3.73,13.21-3.81.96-.02,9.52-13.12,11.53-15.46,32-37.27,99.09-64.79,144.73-82.27,80.5-30.85,164.26-53.1,247.25-76.25Z"/><path class="b" d="M2159,583c-139.38,31.33-279.75,58.6-419.01,90.49-113.25,25.93-235.11,54.7-341.97,100.03-68.27,28.96-184.56,83.82-115.43,172.4,40.95,52.48,116.51,94.86,168.63,138.14,33.83,28.09,80.36,70.04,61.79,118.95h-27c4.87-13.53,6.62-25.64,3.34-39.84-12.45-53.86-110.76-116.34-153.7-150.35-41.74-33.06-115.82-90.38-81.84-150.51,29.01-51.33,135.88-92.65,190.24-111.76,117.42-41.27,242.3-68.5,363.92-95.08,116.92-25.56,234.44-48.52,351.04-75.46v3Z"/><path class="b" d="M2159,704v6c-67.85,20.58-136.45,40.28-201.99,67.51-43.63,18.14-142.04,61.11-139.05,118.03.12,2.19,2.54,12.93,2.03,13.45-1.83,1.86-26.76-15.21-27.99-13.99-.48.47,1.8,11.29,2.29,13.2,8.17,31.89,50.16,65.87,75.79,85.21,47.55,35.89,101.76,66.07,145.93,106.07,27.78,25.16,61.41,63.42,43.99,103.51h-23c16.1-39.17-9.1-72.64-35.99-98.51-42.29-40.69-94.78-70.32-141.49-105.51-29.16-21.97-78.19-60.87-81.51-99.49-2.23-25.87,10.07-5.16,11.98-7.48.38-.46,1.02-9.16,1.73-11.78,13.49-49.55,104.03-88.02,148.29-105.71,71.01-28.38,145.57-49.28,218.99-70.51Z"/><path class="b" d="M2159,721c-62.41,19.16-125.15,38.87-184.68,65.82-43.8,19.83-134.84,64.43-113.03,125.38,1.16,3.25,12.63,20.97,11.7,21.79-1.62,1.43-32.45-15.33-34-13.98-1.72,1.5,20.9,30.03,23.35,32.64,54.33,58.06,137.67,95.83,196.67,151.83,25.78,24.48,54.54,61.14,37.99,98.51h-23c4.64-9.39,6.79-19.99,5.99-30.49-3.55-46.58-73.81-97.16-109.07-122.93-42-30.69-125.21-80.82-146.1-127.9-.61-1.38-3.84-9.65-3.79-10.19.42-4.64,10.64,4.94,11.97,3.51.57-.61-2.85-13.92-2.98-16.51-2.71-53.02,73.75-90.57,114.63-109.35,68.58-31.51,142.49-52.48,214.36-75.14v7Z"/><path class="b" d="M1477,0c6.42,38.54,39.55,68.51,68.53,91.97,53.93,43.67,122.58,78.85,170.52,128.51,78.35,81.17-10.35,132.4-80.36,164.7-54.7,25.23-116.23,45.39-173.92,63.08-388.18,119.08-796.02,160.99-1183.98,281.02-41.79,12.93-85.16,27.11-125.78,43.22-43.28,17.17-122.96,51.62-145,94l-7.01,15.49v-39c13.28-10.45,26.74-20.55,41.33-29.17,60.03-35.46,138.17-60.35,204.9-81.1,389.5-121.1,798.4-163.72,1188.76-280.24,79.32-23.68,189.15-56.54,256.72-103.28,105.35-72.86,15.4-137.79-52.81-187.64-45.83-33.49-147.55-93.87-161.67-150.33-.79-3.17-.82-7.86-1.24-11.26h1Z"/><path class="b" d="M1444,20c2.21,2.43,1.43,1.6,3.44,5.05,48.73,83.45,161.34,125.03,227.6,194.43,82.22,86.11-16.54,138.23-89.37,170.7-79.9,35.61-170.99,62.27-255.46,85.54-370.71,102.12-755.86,146.16-1123,264-71.35,22.9-144.83,48.31-207.21,90.29v-16c90.33-47.66,190.55-77.21,288.78-104.72,152.33-42.66,307.03-77,462-109,239.11-49.37,482.21-91.67,714.17-168.83,62.02-20.63,167.26-56.91,212.56-103.44,65.38-67.17-30.49-131.68-80.6-168.43-39.28-28.8-140.9-92.75-152.91-139.59Z"/><path class="b" d="M1444,20c-4.08-4.49-4.67-14.06-5-20h1l4,20Z"/><path class="b" d="M1404,0c2.76,28.58,23.53,52.85,43.47,72.03,46.08,44.3,105.92,77.66,155.74,118.03s95.99,90.75,35,145.94c-59.17,53.53-190.76,94.26-268,117.72-240.62,73.08-489.76,113.34-735.25,166.75-124.02,26.98-248.86,56.59-370.96,91.04-89.86,25.35-179.98,52.62-264,93.5v-12c2.79-.15,5.46-1.45,7.97-2.53,123.98-53.68,265.44-88.64,396.82-121.18,293.61-72.7,595.4-116.48,886.43-196.57,79.97-22.01,164.63-47.2,240.46-80.54s181.21-84.91,96.98-173.83c-52.38-55.29-128.17-91.81-183.17-145.3-20.28-19.73-40.43-43.82-43.48-73.04h2Z"/><path class="b" d="M1368,0c.85,24.03,17.71,46.03,33.62,62.88,57.53,60.91,146.5,99.94,199.89,162.11,71.87,83.69-25.54,135.06-93.82,166.21-115.19,52.55-256.19,87.95-379.68,117.32-248.32,59.06-500.3,101.04-748.22,162.78-128.09,31.9-257.12,66.05-379.79,114.71v-10c126.53-45.7,257.24-79.66,387.99-111.51,183.74-44.77,369.1-80.14,554.2-118.8,172.14-35.95,359.92-75.47,522.8-141.2,68.22-27.53,211.13-86.37,131.53-178.5-53.68-62.13-138.34-100.35-195.16-160.34-17-17.95-34.16-39.93-35.35-65.65h2Z"/><path class="b" d="M1331,0c2.26,23.03,15.94,42.79,30.97,59.53,57.22,63.71,149.46,102.76,203,168,68.86,83.91-34.17,136.33-100.76,166.18-111.49,49.98-242.94,83.72-362,112-225.95,53.66-455.23,92.9-681.23,146.77-141.7,33.78-283.5,69.5-420.99,117.51v-9c52.71-16.72,105.61-32.91,158.99-47.51,253.74-69.39,509.97-118.82,767.22-172.78,165.42-34.7,344.52-72.59,501.06-135.94,65.51-26.51,201.98-82.88,135.15-172.68-42.57-57.19-127.68-100.98-181.43-150.57-23.37-21.56-48.66-48.49-51.99-81.52h2Z"/><path class="b" d="M1295,0c2,27.52,21.75,51.21,40.6,69.9,57.49,57,152.35,102.32,197.84,166.16,63.03,88.46-75.14,145.61-138.47,171.41-125.52,51.14-268.43,84.82-400.93,114.07-195.81,43.21-392.84,79.94-588.05,125.95-136.34,32.13-272.66,65.78-405.99,108.51v-8c163.07-48.45,328.91-88.25,494.99-125.51,169.18-37.96,339.83-69.25,509.05-106.95,129.84-28.93,270-62.2,392.65-113.35,65.33-27.25,194.2-83.42,126.3-171.67-48.39-62.88-135.59-104.04-192.01-161.99-17.92-18.41-36.42-41.91-37.97-68.53h2Z"/><path class="b" d="M1258,0c2.42,24.33,18.23,45.65,34.46,63.04,56.39,60.44,142.76,99.64,195.53,162.75,79.33,94.89-61.19,153.93-132.02,182.68-119.39,48.46-253.86,80.25-379.76,108.24-176.08,39.15-353.39,72.52-529.25,112.75-149.84,34.28-299.52,70.34-446.96,113.54v-7c122.57-34.98,246.73-64.77,370.96-93.54,200.01-46.31,401.66-84.45,602.05-128.95,122.99-27.32,251.84-57.78,368.98-104.02,67.87-26.8,216.05-86.77,142.43-180.4-56.33-71.65-164.03-114.45-213.25-188.75-8.33-12.58-13.56-25.14-15.17-40.33h2Z"/><path class="b" d="M1221,0c4.84,32.07,28.03,57.38,50.99,78.51,54.73,50.39,130.68,89.87,177.96,146.27,72.93,87-34.31,141.6-103.27,172.39-80.63,36-172.61,61.81-258.25,83.75-157.83,40.44-319.28,69.99-478.62,104.38C405.52,629.4,201.65,676.45,0,731v-7c218.61-56.53,439.04-106.45,659.97-153.53,183.69-39.15,372.7-71.83,551.82-128.18,66.78-21.01,190.87-63.01,236.16-116.08,53.66-62.88-18.28-120.33-65.03-157.62-44.86-35.78-141.83-97.05-160.21-150.79-1.87-5.47-2.93-12.04-3.71-17.79h2Z"/><path class="b" d="M1185,0c.72,22.75,17,44.28,31.97,60.53,56.02,60.76,144.82,100.79,196.01,163.99,70.63,87.2-29.96,140.21-100.3,171.66-127.38,56.95-280.01,90.44-416.45,120.55-164.92,36.4-330.52,69.43-495.25,106.75-134.08,30.38-268.1,61.49-400.99,96.51v-7c192.66-47.12,386.08-91.56,579.99-133.51,164.18-35.52,331.07-65.99,493.44-108.56,80.15-21.02,166.92-46.03,241.94-81.06,64.6-30.17,156.33-81.51,93.62-162.33-53.14-68.49-149.41-108.35-202.94-176.06-12.1-15.31-22.13-31.5-24.03-51.47h3Z"/><path class="b" d="M1147,0c2.28,24.98,19.29,46.02,35.97,63.53,56.76,59.57,144.13,99.18,195,163,69.45,87.13-37.79,141.52-106.3,171.65-75.93,33.38-160.85,57.17-241.25,77.75-157.47,40.29-318.55,70.74-477.44,105.56-184.78,40.5-369.28,82.61-552.99,127.51v-6c194.15-46.17,388.93-90.06,583.96-132.54,148.69-32.38,299.12-60.69,446.46-98.54,77.86-20,160.75-43.35,234.24-75.76,74.32-32.76,179.34-87.53,99.85-178.18-55.68-63.49-145.3-103.05-197.49-168.51-10.89-13.67-21.78-31.68-22.03-49.47h2Z"/><path class="b" d="M1109,0c4.22,30.04,26.98,55.18,48.47,75.03,53.81,49.68,126.39,86.99,175.04,140.96,78.95,87.58-6.57,140.3-83.16,175.87-108.16,50.24-239.92,80.82-356.32,107.68-160.93,37.13-323.02,69.83-484.25,105.75-136.45,30.4-272.79,61.49-408.79,93.71v-6c152.11-34.8,304.38-69.13,456.78-102.72,127.3-28.05,255.04-54.26,382.23-82.77,114.68-25.7,234.48-52.39,344.5-93.5,74.45-27.82,234.28-90.78,147.99-192.03-45.78-53.72-116.36-92.19-169.53-139.47-23.85-21.21-51.85-49.19-54.99-82.51h2Z"/><path class="b" d="M1071,0c3.3,27.9,23.73,51.43,43.47,70.03,36.46,34.34,80.71,62.03,120.42,92.58,57.33,44.1,139.96,109.81,60.57,179.37-63.14,55.32-193.04,93.29-274.25,115.75-177.26,49.02-361.66,83.58-541.44,123.56-159.99,35.57-319.89,71.73-479.77,107.73v-6c43.15-8.52,85.99-19.01,128.96-28.54,206.58-45.77,413.52-89.93,620.05-135.95,144.34-32.17,306.19-63.8,441.67-122.33,69.61-30.07,176.47-83.55,106.3-171.66-43.55-54.68-120.77-95.97-174-143-23.41-20.68-51.67-48.67-53.99-81.51h2Z"/><path class="b" d="M1032,0c3.35,29.37,25.67,52.9,46.47,72.03,54.73,50.31,127.26,87.02,178.18,140.32,94.76,99.19-26.25,157.52-108.68,191.12-119.74,48.8-249.53,74.58-374.93,105.07L0,680v-6c77.96-17.03,156.07-33.44,234.04-50.46,177.78-38.82,355.8-77.31,533.2-117.8,116.65-26.62,240.28-53.65,352.02-95.98,60.2-22.8,202.98-78.5,154.95-165.45-29.23-52.92-117.57-105.49-166.09-143.91-32.26-25.54-72.74-57.4-79.1-100.4h3Z"/><path class="b" d="M993,0c1.21,17.35,11.48,34.87,22.6,47.9,57.59,67.52,153.32,106.13,212.91,174.09,86.78,98.95-61.17,160.6-136.25,188.78-122.27,45.91-257.8,74.48-385.25,103.75C471.77,568.53,235.62,618.69,0,671v-6c162.83-34.42,325.58-69.33,488.04-105.46,100.35-22.32,200.94-44.37,300.98-68.02,93.57-22.13,190.86-45.21,281.23-77.77,70.76-25.5,234.65-87.09,155.73-186.22-48.52-60.95-130.01-99.88-187.5-152.5-21.71-19.87-45.57-44.3-48.47-75.03h3Z"/><path class="b" d="M953,0c2.02,22.06,17.51,42.59,32.48,58.04,57.12,58.92,140.84,95.47,198.03,154.94,82.22,85.51,3.45,139.02-74.84,175.19-65.23,30.14-140.96,51.83-210.46,70.54-118.95,32.01-240.95,58.55-361.18,85.82-178.7,40.53-357.93,78.76-537.04,117.46v-6c216.91-44.72,433.46-91.39,649.21-141.29,138.73-32.09,293.43-63.46,424.78-117.22,78.64-32.19,191.27-87.76,104.53-182.5-57.1-62.36-148.88-100.09-203.32-163.63-12.47-14.55-23.87-31.64-25.19-51.35h3Z"/><path class="b" d="M913,0c2.66,28.5,26.68,53.11,46.99,71.51,56.12,50.84,188.38,117.12,216.51,183.49,32.95,77.74-91.34,128.44-146.25,149.75-93.5,36.28-196.66,60.98-294.23,84.77-90.04,21.95-180.57,42.57-270.97,63.03-154.67,34.99-309.85,67.82-465.04,100.46v-5c200.1-41.55,400-84.11,599.01-130.49,137.45-32.03,288.93-63.42,420.25-113.75,61.01-23.38,195.44-78.03,141.15-163.68-41.53-65.52-146.73-115.21-205.94-169.06-19.62-17.84-42.69-43.43-44.47-71.03h3Z"/><path class="b" d="M873,0c.84,19.91,14.99,39.28,28.03,53.47,57.91,63.08,151.59,100.03,210.94,163.02,94.66,100.48-44.01,158.99-123.72,189.26-110.83,42.08-233.76,69.98-349.23,97.77C427.01,554.52,213.76,600.66,0,644v-5c217.22-43.62,433.93-90.14,649.21-142.29,111.69-27.06,231.9-54.61,338.77-96.23,44.7-17.41,143.01-59.16,148.01-113.99,5.04-55.2-74.06-107.83-113.67-136.3-42.44-30.5-136.63-86.12-150.59-137.41-1.13-4.15-1.99-8.43-1.72-12.78h3Z"/><path class="b" d="M833,0c.77,19.09,13.92,38.32,26.49,52.01,61.07,66.56,160.12,103.43,220.03,170.97,90.36,101.86-72.98,162.22-148,189.03-104.6,37.39-218.2,64.33-326.31,90.69C404.54,551.63,202.4,594.62,0,636v-5c204.53-41.13,408.63-84.66,611.21-134.29,98.47-24.12,200.55-48.81,296.33-81.67,73.25-25.13,255.4-87.36,164.97-191.06-51.52-59.09-135.23-97.19-194.53-149.47-22.04-19.43-45.64-43.95-48.99-74.51h4Z"/><path class="b" d="M793,0c1.57,26.03,21.85,48.48,39.99,65.51,56.52,53.09,132.45,87.53,190.03,139.97,37.08,33.77,65.85,74.23,26.96,119.99-40.55,47.72-144.72,82.72-204.21,101.79-94.29,30.23-192.69,54.47-288.95,78.05-184.59,45.22-370.61,84.52-556.82,122.68v-5c179.65-36.46,359.13-73.94,537.21-117.29,120.82-29.41,251.06-59.97,367.04-103.96,72.92-27.66,212.21-84.21,127.27-179.76-54.87-61.72-143.39-98.07-203.03-155.94-18.44-17.89-37.06-39.37-39.48-66.04h4Z"/><path class="b" d="M753,0c1.6,25.4,22.14,48.78,39.99,65.51,61.55,57.72,152.87,95.62,208.04,156.96,76.98,85.57-21.96,137-93.33,167.72-101.09,43.51-220.09,72.64-327.06,99.94C388.58,539.15,194.55,580.78,0,619v-5c18.48-2.88,36.88-6.59,55.21-10.29,169.36-34.22,338.37-70.75,505.8-113.2,98.49-24.97,201.41-51.08,296.51-86.49,73.02-27.19,223.03-84.93,134.47-182.22-54.64-60.02-141.15-96.92-201-153.28-19.38-18.25-39.61-40.75-41.99-68.51h4Z"/><path class="b" d="M713,0c1.48,6.52,2.8,12.99,5.24,19.26,19.22,49.42,107.84,100.76,151.25,130.75,38.12,26.34,110.27,73.48,120.26,120.74,12.18,57.59-78.45,100.53-120.76,118.74-80.97,34.85-172.72,59.98-257.98,83.02C409.46,527,204.83,570.33,0,611v-5c176.96-34.31,353.45-71.72,528.01-116.49,80.27-20.58,161.95-42.29,240.51-68.49,55.74-18.59,169.05-57.74,201.28-107.72,38.39-59.52-41.01-115.41-82.89-145.71-49.92-36.12-116.88-72.67-155.88-120.12-10.68-12.99-20.3-30.43-21.03-47.47h3Z"/><path class="b" d="M675,0c.55,19.02,12.25,35.36,24.02,49.48,58.9,70.66,164.76,107.6,226.01,177,65.26,73.95-9.29,121.85-72.67,152.39-65.43,31.53-141.52,54.26-211.36,74.64C430.62,514.88,214.89,559.89,0,603v-5c179.85-34.94,359.24-73.09,536.22-120.28,91.47-24.39,190.87-51.21,277.77-88.23,75.53-32.18,178.83-84.17,92.67-173.14-59.43-61.36-151.68-97.39-208.6-162.14-13.26-15.09-26.41-33.37-27.05-54.21h4Z"/><path class="b" d="M636,0c1.35,6.02,2.09,12.39,4.3,18.2,21.06,55.29,126.56,115.16,175.03,149.97,60.86,43.72,144.66,105.93,57.14,174.8-63.61,50.06-184.13,85.2-262.48,108.52C409.82,511.09,204.76,553.86,0,595v-5c199.11-39.37,398.34-81.03,593-138.5,66.48-19.63,137.55-41.56,200.36-70.64,69.27-32.07,150.61-81.01,76.67-160.39-49.29-52.91-125.75-89.94-181.53-137.47-24.83-21.16-52.26-49.19-56.5-83h4Z"/><path class="b" d="M599,0c3.44,32.12,29.19,58.7,52.53,78.97,45.65,39.65,100.27,69.88,147.95,107.05,43.26,33.73,102.19,85.14,51.18,140.63-47.4,51.56-173.48,92.31-240.87,113.63-194.99,61.72-397.32,103.04-597.56,144.45l-3.22-.72,22.99-8-32,5.99v-3c7.75,1.01,51.72-11.72,55.01-9.99.37.2-2.42,2.14.49,2,9.62-.46,27.34-5.23,37.71-7.3,110.1-22.03,220.17-46.99,328.8-75.2,95.28-24.74,195.91-52.43,287.26-88.74,66.97-26.62,204.28-83.02,126.25-172.78-47.56-54.71-124.88-92.59-180.72-140.04-25.97-22.07-56.58-51.13-59.79-86.94h4ZM51.5,571v1c.65-.33.65-.67,0-1ZM35,575.01c-1.4-.72-2.67.63-1.99.98,1.4.72,2.67-.63,1.99-.98Z"/><path class="b" d="M562,0c2.33,31.33,28.7,58.4,50.99,78.51,54.56,49.25,126.06,83.36,178.54,134.46,71.23,69.34,34.33,115.07-38.68,155.38-58.73,32.42-130.5,56.28-194.64,76.36-158.02,49.47-320.81,84.85-482.77,119.24-3.49.03.9-2.19,1.57-2.44,6.68-2.52,14.61-4.25,21.48-6.51,1.63-1.38-1.08-1.04-1.88-.9-32.07,5.46-64.41,14.48-96.61,19.91v-3l118.49-24.01-1.48,3c139.59-29.03,279.38-60.92,415.76-102.72,68.91-21.12,146.18-46.11,209.25-80.75,63.23-34.72,109.68-79.52,47.63-146.17-45.79-49.2-115.03-84.87-167.12-128.38-28.3-23.63-60.35-53.58-65.53-91.97h5ZM116,550.01c-1.4-.72-2.67.63-1.99.98,1.4.72,2.67-.63,1.99-.98ZM102,553.01c-1.4-.72-2.67.63-1.99.98,1.4.72,2.67-.63,1.99-.98Z"/><path class="b" d="M525,0c-.23,4.33.55,8.66,1.7,12.8,15.79,56.95,124.44,121.33,171.62,156.38,48.18,35.8,132.25,97.69,69.24,160.82-45.92,46.01-143.87,80.56-205.59,101.45-106.63,36.09-219.14,64.82-328.92,90.08-28.42,6.54-63.47,16.44-91.62,20.38-2.23.31-3.54-.05-1.43-1.43,4.63-3.02,17.35-4.98,23-7.5l-3.24-.74L0,566v-3l182.52-37.99c4.94,1.07-6.06,2.59-4.01,4.01,110.9-25.27,221.76-51.61,330.26-85.74,71.32-22.44,171.67-55.1,230.71-100.29,86.19-65.95,12.33-126.78-47.16-171.8-46.93-35.51-150.72-98.37-168.8-154.2-1.8-5.55-2.36-11.31-3.52-16.98h5ZM166,531.01c-1.4-.72-2.67.63-1.99.98,1.4.72,2.67-.63,1.99-.98Z"/><path class="b" d="M488,0c1.01,7.35,2.95,15.81,5.81,22.69,21.43,51.67,116.6,109.76,162.09,143.91,47.18,35.43,132.25,95.18,75.62,159.41-43.68,49.55-156.96,89.04-219.98,110.02-100.98,33.61-204.73,59.51-308.53,82.95l21.75-8.75-.14-1.14L0,557v-2c81.23-16.07,162.31-33.17,242.75-52.75l3.24.74-5.48,2.02c-1.6,1.43.94.99,1.76.78,109.08-27.71,218.8-54.71,324-95.01,49.97-19.14,148.05-58.71,169.46-110.54,18.28-44.24-32.84-89.42-63.26-114.21-51.5-41.97-124.93-83.17-165.45-134.55-11.46-14.53-22.47-32.39-23.03-51.47h4ZM229,508.01c-1.4-.72-2.67.63-1.99.98,1.4.72,2.67-.63,1.99-.98Z"/><path class="b" d="M452,0c2.36,30.96,27.56,57.89,49.47,78.03,45.3,41.64,100.68,73.56,148,113,34.63,28.86,80.69,72.07,53.7,120.65-25.64,46.15-122.49,85.7-170.92,104.08-86.71,32.89-177.15,56.59-266.78,80.22-3.74-.05,1.65-2.6,2.16-2.84,6.51-3.14,14.08-5.47,20.85-8.14,1.61-1.42-.94-.99-1.76-.78-94.95,24.16-190.42,46.44-286.73,64.79v-2c100.97-20.88,202-42.07,301.52-68.98,1.81,1.39.45,1.61-.79,2.22-2.99,1.47-7.35,2.59-10.72,2.77l3.24.74c79.47-21.41,159.24-43.28,236.01-73,49.32-19.1,135.14-54.75,162.72-101.28,26.99-45.53-18.57-89.82-50.5-117.44-44.91-38.85-98.27-69.85-142-110-23.79-21.84-48.73-48.48-52.47-82.03h5Z"/><path class="b" d="M2159,807c-22.39,14.71-46.06,29.74-60.41,53.09-32.76,53.29,24.18,100.34,60.41,131.91v23c-6.27-6.52-14.44-11.24-21.47-17.03-54.41-44.85-111.13-102.2-39-163.94,18.28-15.65,39.44-27.54,60.47-39.03v12Z"/><path class="b" d="M0,538c22.73-3.65,45.47-8.61,68.04-13.46,88.95-19.12,177.44-40.37,264.96-65.04,2.61-.74,15.66-5.53,16.52-5.44,2.94.31-.04,3.12-1.52,3.94-1.16.35-2.32.45-4,1-26.3,5.92-52.78,14.64-78.99,21.51-87.63,22.97-176.3,42.08-265.01,60.49v-3Z"/><path class="b" d="M416,0c.02,9.81,3.64,20.7,8.18,29.32,28.86,54.77,124.52,111.2,174.3,150.7,41.66,33.06,101.25,85.36,59.52,141.48-39.1,52.59-166.11,97-228.48,117.52-32.23,10.6-72.61,24.93-105.26,31.74-1.01.21-4.43,1.12-4.25-.75,8.3-2.73,15.72-8.29,23.99-11.01,1.68-.38,1.75.24,4-1,78.64-23.82,159.29-47.09,231.67-86.83,66.93-36.74,114.84-82.13,50.84-153.19-48.43-53.78-120.77-91.29-174.04-141.96-21.08-20.05-43.05-45.91-45.47-76.03h5Z"/><path class="b" d="M379,0c3.1,30.18,25.42,55,46.47,75.03,48.82,46.45,110.87,80.59,160.54,126.46,33,30.48,65.61,69,37.4,114.43-31.73,51.11-141.87,92.35-197.9,112.1-15.27,5.39-43.25,16.73-58.01,18.99-2.22.34-1.77-.42-.46-1.47,14.67-11.77,46.54-18.9,65.2-25.8,33.41-12.35,67-25.96,98.6-42.4,64.98-33.81,130.05-82.5,64.66-156.37-47.31-53.44-116.22-90.51-169.04-138.96-23.67-21.71-48.72-48.73-52.47-82.03h5Z"/><path class="b" d="M342,0c.52,5.7,1.83,11.38,3.73,16.77,19.86,56.24,122.4,118.6,169.74,156.26,36.41,28.96,97.62,78.3,77.01,130.95-19.43,49.65-115.32,90.87-162.79,109.21-3.57,1.38-27.51,10.76-28.69,9.8-.57-.46,9.77-8.81,10.95-9.54,74.74-31.46,236.7-88.96,145.57-193.46-46.22-53-117.45-91.58-169.72-140.04-22.08-20.47-47.93-48.34-49.79-79.95h4Z"/><path class="b" d="M306,0c1.66,24.88,18.48,46.06,34.97,63.53,56.29,59.58,147.16,101,196.45,164.55,61.07,78.75-20.89,129.15-85.74,160.1-5.25,2.51-20.5,10.14-25.18,10.83-.59.09-1.64.27-1.5-.5,2.46-2.2,3.49-5.93,6.03-7.97,7.77-6.22,29.83-14.73,40.27-20.73,51.22-29.45,103.84-72.67,60.52-135.14-49.76-71.75-152.01-113.73-207.8-183.2-11.28-14.04-22.42-33.05-23.03-51.47h5Z"/><path class="b" d="M2159,817v16c-16.18,13.81-31.78,33.33-33.05,55.45-1.56,27.16,14.92,51.11,33.05,69.55v26c-3.26-1.96-6.74-5.3-9.52-7.96-27.12-26-58.32-60.96-44.24-101.31,8.67-24.84,32.21-44.01,53.76-57.74Z"/><path class="b" d="M268,0c4.96,32.88,30.31,59.07,53.99,80.51,53.25,48.24,126.98,86.72,172.99,141.01,49.39,58.28,28.13,100.2-29.45,138.5-3.18,2.12-25.47,15.99-27.03,15.95-2.38-.06.35-8.28,1.53-9.45,1.91-1.89,9.04-5.15,11.89-7.11,51.68-35.73,83.09-73.72,37.06-132.89-50.71-65.17-140.16-105.38-196-168-14.42-16.17-27.61-36.58-29.97-58.53h5Z"/><path class="b" d="M231,0c4.83,36.25,34.12,63.38,60.53,85.97,40.64,34.78,86.58,63.1,127.49,97.51,50.34,42.34,101.08,97.14,37,156.03-1.97,1.81-16.42,13.52-17.52,13.46-1.47-.08-2.88-7.03-2.01-8.94.61-1.36,14.75-13.32,17.55-16.51,47.58-54.38,1.51-103.96-41.01-141.04-48.62-42.4-108.33-76.6-153.01-122.99-16.12-16.73-32.7-39.47-34-63.5h5Z"/><path class="b" d="M0,1041c10.21,5.18,20.26,12.22,29.73,18.77,32.94,22.77,99.63,70.19,103.26,112.74.91,10.67-.41,20.48-3.99,30.49h-23c1.25-6,4.22-11.38,4.88-17.62,2.84-27.1-12.18-49.22-29.83-67.9-23.47-24.83-52.78-45.5-81.04-64.48v-12Z"/><path class="b" d="M193,0c2.79,28.97,26.01,53.92,46.47,73.03,42.3,39.53,93.32,69.33,138.01,105.99,32.66,26.8,83.52,71.93,70.24,119.19-1.43,5.08-15.53,32.7-20.11,31.74-1.11-.23-5.91-6.69-5.5-8.25.26-.97,5.5-7.28,6.7-9.4,28.79-50.91-18.42-96.54-54.33-127.28-35.42-30.32-74.75-55.74-110.95-85.05-31.63-25.61-70.02-57.5-76.53-99.97h6Z"/><path class="b" d="M154,0c3.37,28.82,26.02,53.09,46.47,72.03,42.54,39.37,94.9,70.31,140,107,28.68,23.34,76.99,65.67,73.39,106.35-.23,2.63-4.69,22.66-6.38,22.63-.95-.02-9.14-6.92-9.27-7.61-.42-2.13,2.47-9.7,2.78-12.9,5.13-53.44-62.03-102.8-100.06-131.93-41.47-31.76-135.28-91-149.98-141.02-1.4-4.78-1.75-9.74-2.95-14.55h6Z"/><path class="b" d="M0,1068c9.66,5.76,19.02,12.63,27.9,19.6,22.54,17.71,50.1,41.88,61.28,68.72,6.43,15.45,7.34,31.34-.17,46.67h-23c3-7.72,5.84-16.09,6.07-24.5.83-30.94-31.59-63.9-53.86-82.44-5.62-4.68-11.48-10.14-18.21-13.05v-15Z"/><path class="b" d="M115,0c3.61,28.18,25.69,53.05,45.99,71.51,46.1,41.92,103.52,74.31,151.49,114.51,24.28,20.35,69.43,62.87,64.53,97.49-.17,1.22.49,1.89-1.51,1.5-1.08-.21-9.56-5.32-9.98-6.03-1.05-1.8-1.92-11.87-2.8-15.2-9.17-34.41-48.95-69.07-76.23-90.77-41.28-32.83-86.75-60.77-126.49-95.51C137.64,57.98,112.18,30.69,109,0h6Z"/><path class="b" d="M76,0c-.21,3.78.33,7.58,1.29,11.21,13.4,50.58,113.04,111.09,155.03,141.97,34.95,25.72,91.58,66.6,105.21,108.81.74,2.28-3.16.68-4.26.24s-9.65-5.05-10.01-5.49c-1.97-2.37-6.5-14.9-9.24-19.26-16.23-25.83-51.72-54.16-76.12-72.88C193.31,130.4,92.59,70.38,73.71,18.79c-2.19-5.98-4.01-12.36-3.71-18.79h6Z"/><path class="b" d="M36,0c-.44,3.65.42,6.75,1.29,10.21,9.79,38.85,69.09,81.33,100.78,104.22,45.62,32.96,101.12,65.19,138.45,107.55,2.6,2.95,12.39,14.76,13.47,17.53.54,1.39-.2,1.69-1.5,1.5-1.99-.3-11.15-4.65-12.99-6.02-6.71-5.03-17.69-20.68-25.06-27.95-54.84-54.05-128.73-89.1-183.46-142.53C49.05,47.01,32.1,25.65,29,0h7Z"/><path class="b" d="M0,1099c2.78.91,5.78,3.58,8.02,5.48,17.99,15.3,40.95,40.5,45.54,64.46,2.27,11.85.25,22.77-3.56,34.06h-24c14.62-31.27-2.45-63.9-26-85v-19Z"/><path class="b" d="M0,20c2.74,3.05,4.33,7.36,6.59,10.91,18.65,29.33,54.29,56.12,82.5,76.5,44.04,31.81,91.72,60.07,132.12,96.64,4.77,4.32,10.19,9.04,13.8,14.44-1.73.85-4.72-.86-6.52-1.48-12.22-4.17-12.76-7.97-21.47-15.53C149.88,151.91,76.89,114.32,24.47,62.03,15.63,53.2,8.31,43.3,0,34v-14Z"/><path class="b" d="M2159,946c-14.59-19.01-25.43-41.91-18.89-66.39,3.16-11.84,11.34-23.18,18.89-32.61v99Z"/><path class="b" d="M0,70c2.25.37,4.11,2.24,5.89,3.61,12.17,9.34,23.76,19.71,36.2,28.8,40.53,29.62,84.17,55.16,123.41,86.59,2.02,1.62,5.22,4.28,6.5,6.5-3.22-.07-7.95-1.82-10.96-3.04-12.27-4.95-20.61-14.21-31.13-21.87C88.04,140.11,45.71,110.28,3.91,79.77c-1.3-.95-2-1.78-3.91-1.77v-8Z"/><path class="b" d="M0,465c24.1-5.34,48.21-11.73,72-18.5,62.66-17.82,130.31-39.06,188.19-68.81,29.21-15.01,91.81-52.46,91.81-90.19v-16.5c2.88-.34,3.59,3.44,3.91,5.59,1.7,11.63-3.74,26.39-9.37,36.44-27.34,48.82-122.26,86.1-173.58,104.42-56.53,20.17-114.78,35.84-172.95,50.55v-3Z"/><path class="b" d="M0,444c61.92-18.57,125.6-37.08,183.65-65.85,49.75-24.67,121.79-69.15,83.77-134.07-1.5-2.57-11.73-15.55-10.41-17.08.24-.27,2.51,1.26,3.01,1.76,9.71,9.6,21.14,34.08,22.02,47.7,4.17,64.14-100.6,108.12-149.78,127.31-43.03,16.8-87.67,30.37-132.27,42.23v-2Z"/><path class="b" d="M0,475c26.31-5.21,52.34-12.23,78.22-19.28,51.54-14.04,104.28-29.6,154.03-48.97,44.69-17.4,125.02-52.24,148.27-95.73,2.04-3.81,5.33-15.19,7-17,1.54-1.68,3.31-.62,3.49.51.1.62-3.62,10.23-4.27,11.71-20.4,46.09-99.56,81.63-144.46,99.54-77.91,31.08-160.91,52.1-242.27,72.23v-3Z"/><path class="b" d="M0,485c77.21-17.89,155.15-37.39,229.96-63.54,55.57-19.43,134.51-49.7,174.56-93.44,1.73-1.89,9.58-12.98,10.99-13,4.77-.04-3.04,8.86-3.99,10-37.67,45.53-121.33,77.99-176.56,97.44-76.68,27-155.98,46.41-234.96,65.54v-3Z"/><path class="b" d="M0,405c39-14.78,80.51-30.69,114.91-54.59,108.57-75.42,14.28-138.11-52.85-188.98-1.49-1.13-3.21-2.75-4.07-4.42,3.24,1.25,7.03,3.62,9.91,5.58,31.81,21.65,89.46,65.8,98.8,104.2,13.37,54.97-56.5,93.45-97.35,113.07-22.45,10.78-45.72,20.29-69.36,28.14v-3Z"/><path class="b" d="M0,422v-3c32.2-10.74,64.49-21.96,95.36-36.14,35.91-16.5,98.36-49.26,106.4-91.6,6.98-36.75-23.69-68.4-48.75-90.78-7.13-6.37-14.84-12.16-22.01-18.48,2.26-.38,3.65,1.07,5.33,2.16,12.06,7.9,31.87,26.41,41.7,37.3,58.75,65.13,18.2,110.27-44.35,145.7-41.43,23.46-88.59,39.78-133.67,54.83Z"/><path class="b" d="M0,432c47.77-15.13,96.09-30.42,141.36-52.14,64.88-31.12,139.6-80.82,73.62-156.33-4.55-5.2-10.63-9.8-14.98-15.02-.56-.68-2.98-2.49-1.99-3.5.75-.77,6.27,4.19,7.19,5.01,2.18,1.94,5.14,4.95,7.18,7.11,72.06,76.16,9.55,126.09-61.35,161.4-48.15,23.99-99.89,40.2-151.03,56.47v-3Z"/><path class="b" d="M0,455c64.54-17.81,130.17-36.22,191.68-62.82,48-20.75,137.33-63.07,121.6-127.96-.61-2.52-5.86-13.72-5.28-14.21.15-.13,3.51-.19,3.88.12.56.47,4.19,12.1,4.63,13.86,15.83,62.74-63.89,103.82-110.83,125.19-65.59,29.86-136.53,48.98-205.68,68.82v-3Z"/><path class="b" d="M0,495c92.33-21.97,185.16-43.81,274.52-75.98,46.54-16.75,98.97-37.99,139.21-66.79,4.99-3.57,11.22-10.32,15.9-13.1,1.04-.62,3.47-2,4.37-.63-4.45,5.58-11.75,11.04-17.68,15.32-39.92,28.85-93.44,50.56-139.81,67.19C186.59,453.27,93.12,475.83,0,497v-2Z"/><path class="b" d="M0,504c70.66-16.04,141.41-32.32,211-52.5,74.02-21.47,153.01-47.53,219.67-86.33,1.67-.97,11.37-9.06,9.35-2.67-.42,1.33-20.95,12.36-24,14.02-82.42,44.82-187.67,73.93-278.6,97.4-45.51,11.74-91.4,22.69-137.42,32.08v-2Z"/><path class="b" d="M0,145c2.84.65,5.9,2.59,8.31,4.19,37.63,24.95,111.64,75.51,120.24,121.76,10.61,57.03-72.63,97.29-114.88,116.23-4.31,1.93-8.95,4.19-13.68,4.82v-3c32.44-13.75,68.27-30.2,95.01-53.49,64.97-56.58,11.15-110.38-38.54-149.49-14.51-11.42-32.1-24.44-47.53-34.47-2.6-1.69-6.05-3.36-8.94-4.56v-2Z"/><path class="b" d="M0,513c133.04-30.87,270.63-59.48,396.68-112.82,10.71-4.53,23.06-11.83,33.61-15.39,1.59-.54,2.98-1.05,4.72-.77-.44,1.49-2,2.5-3.3,3.19-16.46,8.83-38.83,17.63-56.44,24.56-56.02,22.07-116.87,40.2-175.05,55.95-66.15,17.9-133.17,33.18-200.22,47.28v-2Z"/><path class="b" d="M2047,0c.3,4.39,1.22,9.85,2.48,14.02,8.19,27.15,39.94,56.91,61.32,74.97,15.49,13.09,31.97,24.85,48.21,37.01v8c-30.21-24.56-64.28-47.24-89.95-76.79-14.14-16.28-26.96-35.12-29.05-57.21h7Z"/><path class="b" d="M2009,0c4.04,29.57,26.74,54.98,47.99,74.51,19.08,17.54,41.86,31.54,60.74,48.2.67.59,2.9.67.76,2.31-5.08-1.39-10.85-2.94-15.4-5.61-11.59-6.79-29.81-23.18-40.57-32.43-26.5-22.77-55.21-50.69-60.52-86.98h7Z"/><path class="b" d="M0,521c44.95-8.55,89.72-18.61,134.21-29.29,81.43-19.53,162.81-41.35,241.74-69.26,14.32-5.06,28.4-11.72,43.05-15.44-1.28,2.91-5.03,3.57-7.75,4.74-17.64,7.58-38.17,14.3-56.48,20.52C239.34,471.52,119.12,498.14,0,524v-3Z"/><path class="b" d="M0,374v-4c12.89-5.56,25.76-13.16,37.32-21.18,51.55-35.77,66.02-75,20.71-125.34-16.45-18.27-37.63-34.92-58.03-48.47v-2c11.79,6.08,23.25,15.48,33.48,24.02,50.87,42.51,85.52,91.09,21.54,143.49-16.28,13.33-36.03,24.57-55.01,33.49Z"/><path class="b" d="M0,532v-2c105.07-21.89,210.08-45.14,313-75.5,25.79-7.61,51.32-16.19,77.01-23.99.08,1.69-1.44,2.62-2.77,3.23-8.23,3.78-23.18,7.55-32.47,10.53-38.41,12.29-77.54,23.19-116.55,33.45-78.7,20.71-158.37,38.51-238.22,54.28Z"/><path class="b" d="M1971,0c6.97,45.84,49.59,74.22,82,102.5-11.53-.3-20.82-9.29-29.47-16.53-18.92-15.83-43.98-40.6-53.7-63.3-3.09-7.21-5.22-14.84-5.83-22.67h7Z"/><path class="b" d="M2084,0c1.64,17.06,10.47,32.45,20.58,45.92,15.14,20.15,35.28,35.98,54.42,52.08v8c-10.59-10.18-22.79-18.8-33.53-28.97-21.62-20.48-44.71-46.08-47.47-77.03h6Z"/><path class="b" d="M0,102l101.01,69.49-19.35-6.65c-22.77-16.63-46.23-32.45-69.34-48.66-3.74-2.62-7.91-5.86-12.32-7.18v-7Z"/><path class="b" d="M0,204c7.41,4.36,14.16,11.2,20.03,17.47,37.34,39.93,42.85,77.23-.67,115.34-5.37,4.7-12.73,10.96-19.36,13.19v-4c18.22-11.5,36.55-29.35,43.05-50.45,8.38-27.21-7.77-53.08-25.53-72.56-5.15-5.65-11.24-11.71-17.51-15.99v-3Z"/><path class="b" d="M10,1203H0v-62c14.65,17.04,18.3,41.2,10,62Z"/><path class="b" d="M1932,0c3.86,34.41,31.21,56.78,54.72,78.72.63.59,2.97.64.76,2.3-3.55-2-8.33-2.55-11.74-4.26-7.03-3.52-24.87-22.97-30.16-29.84-10.38-13.47-19.77-29.5-20.58-46.92h7Z"/><path class="b" d="M2121,0c2.86,26.47,20.59,47.38,38,66v7c-20.58-18.97-41.57-43.95-44-73h6Z"/><path class="b" d="M1893,0c1,14.17,7.94,27.96,16.18,39.32,3.49,4.8,7.08,7.93,10.79,12.21,1.13,1.3,3.16,3.83,3.52,5.48-11.26-2.5-15.44-7.41-21.71-16.29-8.64-12.23-14.89-25.8-16.78-40.72h8Z"/><path class="b" d="M2159,250c-27.88-50.68-80.26-82.14-125.01-116.51-.34-1.9.59-1.94,2.02-1.01,15.76,10.27,34.4,24.85,49.46,36.54,23.02,17.87,48.92,39.29,66.35,62.65,2.67,3.58,5.15,7.34,7.18,11.32v7Z"/><path class="b" d="M0,250c13.4,18.59,12.65,38.32,2.83,58.38-.71,1.45-.47,3.13-2.83,2.62v-11c3.53-3.67,4.83-12.41,5.04-17.45.27-6.49-.98-17.44-5.04-22.55v-10Z"/><path class="b" d="M1853,0c.66,4.64,1.51,10.14,2.95,14.55,2.15,6.62,6.47,12.1,9.04,18.45-16.14-3.28-16.95-19.6-19.99-33h8Z"/><path class="b" d="M2159,200v3c-32.08-29.56-67.61-55.03-102.92-80.58l-3.08-3.41,4.3,2.2c34.56,25.4,69.95,49.88,101.7,78.8Z"/><path class="b" d="M0,129l26.01,16.51c.29,2.28-.56,1.44-2.08,1.07-4.01-.97-11.08-3.44-14.91-5.1-3.41-1.47-5.42-4.3-9.02-4.48v-8Z"/><path class="b" d="M2158,0c.32,2.5-1,6.28,1,8v19c-3.31-8.35-6.48-18.06-7-27h6Z"/><path class="b" d="M2159,169v3c-17.37-14.71-36.2-27.43-54.01-41.5l3.36.65,50.65,37.85Z"/><path class="b" d="M1813,0l.49,8.01c-3.65-1.69-9.63-2.61-8.49-8.01h8Z"/><path class="b" d="M1553,0c.47,6.82-1.47,6.82-1,0h1Z"/><path class="b" d="M2159,142v1c-4.04-.58-3.92-3.59,0-1Z"/><rect class="b" x="2008.9" y="87.25" width="2.06" height="55.4" transform="translate(729.92 1668.85) rotate(-53.79)"/><path class="b" d="M1908,96.99c-3.62-1.46-7.41-4.57-10.47-7.02-3.33-2.65-6.91-5.56-9.53-8.96l11.48,8.01,8.52,7.97Z"/><path class="b" d="M1853.59,84.42c1.44,1.32,2.77,2.91,4.41,4.09-.88,1.43-3.05-.46-3.92-1.08-1.18-.85-9.19-7.27-8.07-8.42.78-.8,6.65,4.56,7.58,5.41Z"/><path class="b" d="M2046.99,113.02c.54.61.2,2.67-1.48,1.97l-17.51-14.98c5.9,2.13,10.51,7.33,15.27,11.24,1.12.92,3.59,1.61,3.72,1.77Z"/><path class="b" d="M2089.63,117.38c4.78,3.9,10.27,6.91,14.37,11.61-6.25-2.01-11.54-7.81-16.51-11.99-1.04-1.7,1.96.23,2.14.38Z"/><path class="b" d="M1947.99,96.02c.1.12.37,2.11-.49,1.98-1.8-1.46-23.58-17.97-22.5-18.99s18.21,14.71,20.55,15.99c.46.73,2.29.83,2.44,1.02Z"/><path class="b" d="M1718.98,26l4.01,9c-1.72-.71-8.82-9.94-4.01-9Z"/><path class="b" d="M1985,95.99c-.82.76-7.53-4.56-8-5.98,1.85-.54,8.59,5.44,8,5.98Z"/><rect class="b" x="1593.82" y="12.62" width="2.14" height="7.82" transform="translate(57.46 441.09) rotate(-16.03)"/><path class="b" d="M1730.78,43.22c.71.75.64,2.14,1.21,3.04l15,15.73c-7.93-3.23-13.39-13.04-18.97-19.5.39-.47,2.67.62,2.76.73Z"/><path class="b" d="M2154.99,138.02c.1.12.37,2.11-.49,1.98l-7.5-5.99c1.26-.09,7.7,3.67,7.99,4.01Z"/><rect class="b" x="1833.29" y="60.11" width="1.58" height="18.09" transform="translate(549 1379.58) rotate(-47.72)"/><path class="b" d="M1878.34,72.66c1.61,1.55,4.27,2.69,5.65,4.85-1.88,2.15-1.92-.75-2.35-1.11-5.45-4.48-11.09-9.51-15.62-14.91l10.04,7.97c1.05.81,1.41,2.35,2.28,3.19Z"/><rect class="b" x="1552.39" y="5.78" width="2.23" height="4.44" transform="translate(83.88 511.63) rotate(-19.21)"/><path class="b" d="M1517.99,18c-2.28-.6-2.08-3.13-1.98-5,2.28.6,2.08,3.13,1.98,5Z"/><path class="b" d="M1672.01,13l3.5,8.98c-2.22-2.39-3.82-5.63-3.5-8.98Z"/><rect class="b" x="1898.54" y="51.92" width="1.44" height="5.64" transform="translate(517.57 1359.01) rotate(-45)"/><rect class="b" x="1518.82" y="19.8" width="2.11" height="4.34" transform="translate(14.23 230.61) rotate(-8.72)"/><path class="b" d="M1682.98,33c.17.12,1.07,3.25,1.01,4-3.43-.79-3.69-5.97-1.01-4Z"/><path class="b" d="M1602,29.99c-1.43,1.14-3.87-2.02-2.99-3.99,1.24-.02,3.18,3.83,2.99,3.99Z"/><path class="b" d="M1776,50.99c-1.12,1.12-4.52-3.82-4.98-4.51-.56-.83-2.06-2.5-1.53-3.46.9.79,6.87,7.61,6.51,7.97Z"/><path class="b" d="M1716.99,25c-.57.72-3.03-2.67-1.98-4,.57-.72,3.03,2.67,1.98,4Z"/><rect class="b" x="1676.19" y="23.03" width="1.78" height="4.72" transform="translate(227.69 869.5) rotate(-31.08)"/><path class="b" d="M1778,54.01c2.1-1.04,4.21,3.98,3.51,3.97-.26,0-3.29-3.05-3.51-3.97Z"/><rect class="b" x="1810.06" y="40.86" width="1.52" height="7.79" transform="translate(351.15 1117.34) rotate(-37.72)"/><path class="b" d="M1599,24.99c-1.54,1.63-2.91-1.83-1.99-2.99.44-.55,2.82,2.12,1.99,2.99Z"/><path class="b" d="M1679.99,28c.12.16.47,3.12.52,3.98-3.78-1.76-1.11-4.75-.52-3.98Z"/><path class="b" d="M1805.01,37c.47-.57,3.11,2.93,2.5,3.98-.96-.85-3.38-2.89-2.5-3.98Z"/><path class="b" d="M2019.35,92.65c.82.82,2.53.97,2.65,2.34-1.78.3-5.91-3.07-4.5-4.99.91.66,1.1,1.89,1.85,2.65Z"/><path class="b" d="M1515.99,7c.1.11.14,2.66,0,2.99-.89,1.98-3.05-6.48,0-2.99Z"/><path class="b" d="M1845,77.99c-1.03.82-3.51-1.58-3-1.98,1.03-.82,3.51,1.58,3,1.98Z"/><path class="b" d="M1713.99,17.99c-.68,1.46-2.42-5.04-1.98-5.99.68-1.46,2.42,5.04,1.98,5.99Z"/><path class="b" d="M1756.01,22c.56-1.23,1.86,2.85,1.5,3.98-1.25-.76-2.13-2.6-1.5-3.98Z"/><path class="b" d="M1853,46.99c-2.09.29-2.28.1-1.99-1.99l1.99,1.99Z"/><path class="b" d="M1819,53.99c-2.09.29-2.28.1-1.99-1.99l1.99,1.99Z"/><path class="b" d="M1953,68.99c-2.09.29-2.28.1-1.99-1.99l1.99,1.99Z"/><path class="b" d="M1973,87.99c-.07-.07-.38-2.12.49-1.99l2.49,2.5c-.53.18-2.87-.41-2.98-.51Z"/><path class="b" d="M1962.99,76.01c1.14,1.16-.43,3.22-1.99.49-.13-.87,1.92-.56,1.99-.49Z"/><path class="b" d="M1514.99,5c-.35.68-1.7-.59-.98-1.99.35-.68,1.7.59.98,1.99Z"/><path class="b" d="M1670.99,7c-.35.68-1.7-.59-.98-1.99.35-.68,1.7.59.98,1.99Z"/><path class="b" d="M1752.99,14c-.35.68-1.7-.59-.98-1.99.35-.68,1.7.59.98,1.99Z"/><path class="b" d="M1636.99,24c-.35.68-1.7-.59-.98-1.99.35-.68,1.7.59.98,1.99Z"/><path class="b" d="M1796.99,24c-.35.68-1.7-.59-.98-1.99.35-.68,1.7.59.98,1.99Z"/><path class="b" d="M2051,116.01c1.04.53-1.61,2.1-2.98-.52.51-.21,2.76.41,2.98.52Z"/><path class="b" d="M2084,113.01c.68.35-.59,1.7-1.99.98-.68-.35.59-1.7,1.99-.98Z"/><path class="b" d="M1823.49,58.02c.13,0,1.49,1.36,1.49,1.49.03,1.38-2.87-1.52-1.49-1.49Z"/><path class="b" d="M2026.5,98c.65.33.65.67,0,1v-1Z"/><path class="b" d="M1902.5,58c.65.33.65.67,0,1v-1Z"/><path class="b" d="M1965.5,80c.65.33.65.67,0,1v-1Z"/><path class="b" d="M1858.5,53c.65.33.65.67,0,1v-1Z"/><path class="b" d="M1949.5,98c.65.33.65.67,0,1v-1Z"/><path class="b" d="M1856.5,51c.65.33.65.67,0,1v-1Z"/><path class="b" d="M2024.5,97c.65.33.65.67,0,1v-1Z"/><path class="b" d="M1891.5,44c.65.33.65.67,0,1v-1Z"/><path class="b" d="M1848.5,41c.65.33.65.67,0,1v-1Z"/><path class="b" d="M1886.5,79c.65.33.65.67,0,1v-1Z"/><path class="b" d="M1726.5,40c.65.33.65.67,0,1v-1Z"/><path class="b" d="M1724.5,37c.65.33.65.67,0,1v-1Z"/><path class="b" d="M1804.5,35c.65.33.65.67,0,1v-1Z"/><path class="b" d="M1762.49,34.02c.13,0,1.49,1.36,1.49,1.49.03,1.38-2.87-1.52-1.49-1.49Z"/><path class="b" d="M1760.5,31c.65.33.65.67,0,1v-1Z"/><path class="b" d="M1799.5,29c.65.33.65.67,0,1v-1Z"/><path class="b" d="M1986.5,97c.65.33.65.67,0,1v-1Z"/><path class="b" d="M1755.5,20c.65.33.65.67,0,1v-1Z"/><path class="b" d="M1714.5,19c.65.33.65.67,0,1v-1Z"/><path class="b" d="M1859.5,90c.65.33.65.67,0,1v-1Z"/><path class="b" d="M1794.5,18c.65.33.65.67,0,1v-1Z"/><path class="b" d="M1753.5,15c.65.33.65.67,0,1v-1Z"/><path class="b" d="M1792.5,13c.65.33.65.67,0,1v-1Z"/><path class="b" d="M1968.49,82.02c.13,0,1.49,1.36,1.49,1.49.03,1.38-2.87-1.52-1.49-1.49Z"/><path class="b" d="M1671.5,8c.65.33.65.67,0,1v-1Z"/><path class="b" d="M1711.5,7c.65.33.65.67,0,1v-1Z"/><path class="b" d="M1630.5,7c.65.33.65.67,0,1v-1Z"/><path class="b" d="M1923.5,77c.65.33.65.67,0,1v-1Z"/></svg>